<?xml version="1.0" encoding="UTF-8"?>
<svg xmlns="http://www.w3.org/2000/svg"
     xmlns:math="http://www.w3.org/2005/xpath-functions/math"
     xmlns:xlink="http://www.w3.org/1999/xlink"
     xmlns:xsd="http://www.w3.org/2001/XMLSchema"
     height="30"
     width="30"
     version="1.0">
   <path xmlns=""
         d="M 15 15 L 11.535451753082675 16.435062871369087"
         stroke="black"
         stroke-width="0.1"/>
   <path xmlns=""
         d="M 17.651650429449553 17.651650429449553 A 3.75 3.75 0 1 1 15 11.25"
         stroke="black"
         stroke-width="0.1"
         fill="none"/>
   <path xmlns=""
         d="M 17.651650429449553 17.651650429449553 L 20.303300858899107 20.303300858899107"
         stroke="black"
         stroke-width="0.1"/>
   <path xmlns=""
         d="M 22.5 15 A 7.5 7.5 0 0 1 15 22.5"
         stroke="black"
         stroke-width="0.1"
         fill="none"/>
   <path xmlns="" d="M 22.5 15 L 26.25 15" stroke="black" stroke-width="0.1"/>
   <path xmlns=""
         d="M 26.25 15 L 30 15"
         stroke="black"
         stroke-width="0.1"
         stroke-dasharray="0.1"/>
   <path xmlns="" d="M 15 22.5 L 15 26.25" stroke="black" stroke-width="0.1"/>
   <path xmlns=""
         d="M 20.625 24.742785792574935 A 11.25 11.25 0 0 1 9.375000000000004 24.742785792574935"
         stroke="black"
         stroke-width="0.1"
         fill="none"/>
   <path xmlns=""
         d="M 20.625 24.742785792574935 L 22.5 27.99038105676658"
         stroke="black"
         stroke-width="0.1"/>
   <path xmlns=""
         d="M 9.375000000000004 24.742785792574935 L 7.5000000000000036 27.99038105676658"
         stroke="black"
         stroke-width="0.1"/>
   <path xmlns=""
         d="M 11.25 15 L 7.5 15.000000000000002"
         stroke="black"
         stroke-width="0.1"/>
   <path xmlns=""
         d="M 7.5 15.000000000000002 L 0 15.000000000000002"
         stroke="black"
         stroke-width="0.1"
         stroke-dasharray="0.1"/>
   <path xmlns=""
         d="M 15 11.25 L 14.999999999999998 7.5"
         stroke="black"
         stroke-width="0.1"/>
   <path xmlns=""
         d="M 11.249999999999996 8.504809471616712 A 7.5 7.5 0 0 1 18.749999999999996 8.504809471616706"
         stroke="black"
         stroke-width="0.1"
         fill="none"/>
   <path xmlns=""
         d="M 11.249999999999996 8.504809471616712 L 9.374999999999995 5.2572142074250685"
         stroke="black"
         stroke-width="0.1"/>
   <path xmlns=""
         d="M 9.374999999999995 5.2572142074250685 L 7.499999999999993 2.0096189432334235"
         stroke="black"
         stroke-width="0.1"
         stroke-dasharray="0.1"/>
   <path xmlns=""
         d="M 18.749999999999996 8.504809471616706 L 20.624999999999993 5.257214207425061"
         stroke="black"
         stroke-width="0.1"/>
   <path xmlns=""
         d="M 20.624999999999993 5.257214207425061 L 22.49999999999999 2.0096189432334146"
         stroke="black"
         stroke-width="0.1"
         stroke-dasharray="0.1"/>
</svg>
